<svg width="19" height="18" viewBox="0 0 19 18" fill="none" xmlns="http://www.w3.org/2000/svg">
<path d="M9.50002 7.7115H17.996C18.083 8.1615 18.134 8.67975 18.1363 9.20925V9.2115L18.1378 9.378C18.1378 10.9762 17.7425 12.4822 17.045 13.8037L17.0698 13.752C16.383 15.0499 15.3416 16.126 14.0668 16.8547L14.0285 16.875C12.6434 17.6487 11.0764 18.0371 9.49027 18H9.49927H9.46627C8.21227 18 7.01902 17.739 5.93827 17.2687L5.99527 17.2912C3.81877 16.377 2.12227 14.6797 1.22977 12.5617L1.20802 12.504C0.759518 11.4697 0.499268 10.2652 0.499268 9C0.499268 7.73475 0.760268 6.53025 1.23052 5.4375L1.20802 5.496C2.12227 3.3195 3.81952 1.623 5.93752 0.730498L5.99527 0.708748C7.09054 0.237602 8.27097 -0.00338428 9.46327 0.000748505H9.50152H9.49927L9.64852 -0.000751495C11.9323 -0.000751495 14.0068 0.896998 15.5383 2.3595L15.5353 2.3565L13.0858 4.71225C12.6105 4.25114 12.0475 3.8901 11.4302 3.65048C10.8128 3.41086 10.1537 3.29755 9.49177 3.31725H9.49852H9.46327C8.48199 3.31586 7.51919 3.58412 6.68002 4.09275L6.70402 4.07925C5.01952 5.09775 3.91027 6.92025 3.91027 9.00075C3.91027 11.0812 5.01952 12.9037 6.67852 13.908L6.70402 13.9222C7.53698 14.4233 8.49121 14.6869 9.46327 14.6842H9.50077H9.49852H9.56077C10.2088 14.6842 10.832 14.5815 11.4163 14.3902L11.3743 14.4022C11.8843 14.2466 12.3644 14.0057 12.794 13.6897L12.7813 13.6987C13.1387 13.426 13.4584 13.1073 13.7323 12.7507L13.7413 12.7387C13.9753 12.444 14.1778 12.108 14.3338 11.748L14.345 11.7187C14.4645 11.4334 14.5516 11.1355 14.6045 10.8307L14.6083 10.8045H9.50002V7.7115Z" fill="white"/>
</svg>
